<svg xmlns="http://www.w3.org/2000/svg" width="33.383" height="48.834" viewBox="0 0 33.383 48.834">
  <g id="keep-in-list" transform="translate(-81)">
    <path id="Path_34" data-name="Path 34" d="M125.292,31.475h4.292v2.861h-1.431a1.431,1.431,0,0,0-1.086,2.362l5.723,6.677a1.431,1.431,0,0,0,2.173,0l5.723-6.677a1.431,1.431,0,0,0-1.086-2.362h-1.431V31.475h7.153a1.431,1.431,0,0,0,1.431-1.431V7.153a1.43,1.43,0,0,0-.419-1.012,2.619,2.619,0,0,1,0-3.7A1.431,1.431,0,0,0,145.322,0h-20.03A4.3,4.3,0,0,0,121,4.292V27.183a4.3,4.3,0,0,0,4.292,4.292Zm8.584,8.77-2.628-3.066a1.431,1.431,0,0,0,1.2-1.412V31.475h2.861v4.292a1.431,1.431,0,0,0,1.2,1.412Zm10.015-11.632H129.584V8.584h14.307Zm-18.6-25.752H142.9a5.517,5.517,0,0,0,0,2.861H125.292a1.431,1.431,0,0,1,0-2.861Zm-1.431,5.477a4.272,4.272,0,0,0,1.431.246h1.431v20.03h-1.431a1.432,1.432,0,0,1-1.431-1.431Z" transform="translate(-36.185 0)" fill="#025928"/>
    <path id="Path_35" data-name="Path 35" d="M242.431,122.861h5.723a1.431,1.431,0,0,0,0-2.861h-5.723a1.431,1.431,0,1,0,0,2.861Z" transform="translate(-144.739 -108.554)" fill="#025928"/>
    <path id="Path_36" data-name="Path 36" d="M112.952,432a1.431,1.431,0,0,0-1.431,1.431v3.338H83.861v-3.338a1.431,1.431,0,1,0-2.861,0V438.2a1.431,1.431,0,0,0,1.431,1.431h30.521a1.431,1.431,0,0,0,1.431-1.431v-4.769A1.431,1.431,0,0,0,112.952,432Z" transform="translate(0 -390.796)" fill="#025928"/>
  </g>
</svg>
