<svg id="money" xmlns="http://www.w3.org/2000/svg" width="45.5" height="45.5" viewBox="0 0 45.5 45.5">
  <path id="Path_67" data-name="Path 67" d="M224.269,349.878v-2.935c.665.176,1.16.6,1.16,1.065a.667.667,0,0,0,1.333,0,2.678,2.678,0,0,0-2.493-2.431v-.218a.667.667,0,1,0-1.333,0v.218a2.678,2.678,0,0,0-2.493,2.431c0,1.614,1.175,2.306,2.493,2.805v2.935c-.665-.176-1.16-.6-1.16-1.065a.667.667,0,1,0-1.333,0,2.678,2.678,0,0,0,2.493,2.431v.218a.667.667,0,0,0,1.333,0v-.218a2.678,2.678,0,0,0,2.493-2.431C226.763,351.069,225.588,350.377,224.269,349.878Zm-2.493-1.87c0-.467.495-.889,1.16-1.065v2.428C222.066,348.978,221.776,348.6,221.776,348.009Zm2.493,5.74V351.32c.87.394,1.16.767,1.16,1.363C225.43,353.15,224.935,353.573,224.269,353.749Z" transform="translate(-200.853 -314.061)" fill="#025928"/>
  <path id="Path_68" data-name="Path 68" d="M44.833,304.613H.667a.667.667,0,0,0-.667.667v17.1a.667.667,0,0,0,.667.667H44.833a.667.667,0,0,0,.667-.667v-17.1A.667.667,0,0,0,44.833,304.613Zm-29.161,8.549H1.333v-1.517H15.672Zm0-2.85H1.333V308.8H15.672ZM1.333,314.494H15.672v1.516H1.333Zm15.672-8.548h11.49V321.71H17.005Zm12.823,8.548H44.167v1.516H29.828Zm0-1.333v-1.517H44.167v1.517Zm0,4.182H44.167v1.516H29.828Zm14.339-9.882H41.984a.667.667,0,1,0,0,1.333h2.183v1.516H29.828V308.8h9.306a.667.667,0,1,0,0-1.333H29.828v-1.516H44.167Zm-28.495-1.516v1.516H1.333v-1.516ZM1.333,320.193H3.516a.667.667,0,0,0,0-1.333H1.333v-1.516H15.672v1.516H6.365a.667.667,0,0,0,0,1.333h9.307v1.516H1.333Zm28.495,1.516v-1.516H44.167v1.516Z" transform="translate(0 -277.543)" fill="#025928"/>
  <path id="Path_69" data-name="Path 69" d="M128.925,14.156h3.608V24.887a.667.667,0,1,0,1.333,0v-11.4a.667.667,0,0,0-.667-.667h-2.851L139.61,1.708l9.263,11.115h-2.851a.667.667,0,0,0-.666.667v11.4a.667.667,0,0,0,1.333,0V14.156H150.3a.667.667,0,0,0,.512-1.093L140.123.24a.667.667,0,0,0-1.024,0L128.413,13.063a.667.667,0,0,0,.512,1.093Z" transform="translate(-116.86)" fill="#025928"/>
</svg>
