<svg id="information" xmlns="http://www.w3.org/2000/svg" width="45" height="45" viewBox="0 0 45 45">
  <g id="Group_2334" data-name="Group 2334">
    <g id="Group_2333" data-name="Group 2333">
      <circle id="Ellipse_3" data-name="Ellipse 3" cx="2.197" cy="2.197" r="2.197" transform="translate(20.303 31.069)" fill="#025928"/>
      <path id="Path_75" data-name="Path 75" d="M22.5,0A22.5,22.5,0,1,0,45,22.5,22.488,22.488,0,0,0,22.5,0Zm0,41.484A18.984,18.984,0,1,1,41.484,22.5,18.974,18.974,0,0,1,22.5,41.484Z" fill="#025928"/>
      <path id="Path_76" data-name="Path 76" d="M183.031,128.5A7.039,7.039,0,0,0,176,135.531a1.758,1.758,0,0,0,3.516,0,3.516,3.516,0,1,1,3.516,3.516,1.758,1.758,0,0,0-1.758,1.758V145.2a1.758,1.758,0,0,0,3.516,0V142.34a7.032,7.032,0,0,0-1.758-13.84Z" transform="translate(-160.531 -117.206)" fill="#025928"/>
    </g>
  </g>
</svg>
