<svg xmlns="http://www.w3.org/2000/svg" width="15.35" height="15.752" viewBox="0 0 15.35 15.752">
  <path id="Icon_awesome-arrow-up" data-name="Icon awesome-arrow-up" d="M1.426,11.3l-.78-.78a.84.84,0,0,1,0-1.192L7.476,2.494a.84.84,0,0,1,1.192,0L15.5,9.325a.84.84,0,0,1,0,1.192l-.78.78a.845.845,0,0,1-1.206-.014L9.48,7.051v10.1A.842.842,0,0,1,8.636,18H7.511a.842.842,0,0,1-.844-.844V7.051L2.632,11.287a.839.839,0,0,1-1.206.014Z" transform="translate(15.747 17.999) rotate(-180)" fill="#ff0303"/>
</svg>
