<svg xmlns="http://www.w3.org/2000/svg" width="46.497" height="46.5" viewBox="0 0 46.497 46.5">
  <g id="profit" transform="translate(-0.5)">
    <path id="Path_73" data-name="Path 73" d="M207.408,347.816a.908.908,0,1,0-.908-.908A.909.909,0,0,0,207.408,347.816Zm0,0" transform="translate(-187.291 -314.576)" fill="#025928"/>
    <path id="Path_74" data-name="Path 74" d="M.766,35.335l10.9,10.9a.908.908,0,0,0,1.284,0l5.994-5.994a.908.908,0,0,0,0-1.284l-.266-.266H31.768a4.531,4.531,0,0,0,3.093-1.216L45.88,27.147A3.506,3.506,0,0,0,41.635,21.6l-2.446,1.6A15.271,15.271,0,0,0,32.1,10.673,2.729,2.729,0,0,0,30.9,6.29l-.134-.042,2.338-4.2a.908.908,0,0,0-.54-1.314A18.622,18.622,0,0,0,22.2.734a.908.908,0,0,0-.54,1.314L24,6.248l-.136.043a2.724,2.724,0,0,0-1.2,4.381A15.272,15.272,0,0,0,15.576,23.25c0,.133,0,.264.007.395a11.16,11.16,0,0,0-4.411,2.366l-2.76,2.415-.368-.368a.908.908,0,0,0-1.284,0L.766,34.051A.908.908,0,0,0,.766,35.335ZM23.826,2.2a16.844,16.844,0,0,1,7.115,0L28.916,5.832a11.073,11.073,0,0,0-3.067,0Zm.607,5.82a9.4,9.4,0,0,1,5.9,0,.909.909,0,0,1-.227,1.77,8.884,8.884,0,0,0-5.441,0h0a.908.908,0,0,1-.229-1.768Zm.5,3.592a7.086,7.086,0,0,1,4.785-.038c4.22,1.451,7.653,6.691,7.653,11.68a8.742,8.742,0,0,1-.079,1.2l-4.365,2.864a3.611,3.611,0,0,0-2.821-1.342H28.291V24.91a2.724,2.724,0,0,0-.908-5.293.908.908,0,0,1,0-1.816,1.459,1.459,0,0,1,.982.475.908.908,0,1,0,1.263-1.305,3.5,3.5,0,0,0-1.337-.836V15.076a.908.908,0,1,0-1.816,0V16.14a2.724,2.724,0,0,0,.908,5.293.908.908,0,0,1,0,1.816,1.643,1.643,0,0,1-1.179-.687.908.908,0,1,0-1.39,1.169,3.765,3.765,0,0,0,1.661,1.183v1.06h-.3c-.446,0-.647-.291-.961-.494a11.142,11.142,0,0,0-7.818-2.173c0-.019,0-.038,0-.057C17.393,18.33,20.776,13.108,24.935,11.608ZM12.369,27.377a9.339,9.339,0,0,1,11.752-.444,3.221,3.221,0,0,0,2.051.858h3.935a1.816,1.816,0,0,1,0,3.633H23.75a.908.908,0,1,0,0,1.816h6.357a3.629,3.629,0,0,0,3.58-4.249l8.918-5.852a1.69,1.69,0,0,1,2.035,2.679L33.623,36.145a2.717,2.717,0,0,1-1.854.728H16.86L9.7,29.712ZM7.4,29.983,17.017,39.6l-4.71,4.71L2.692,34.693Zm0,0" fill="#025928"/>
  </g>
</svg>
