<svg xmlns="http://www.w3.org/2000/svg" width="56.374" height="64.062" viewBox="0 0 56.374 64.062">
  <g id="Group_14" data-name="Group 14" transform="translate(-0.068 0.114)">
    <g id="Group_12" data-name="Group 12" transform="translate(0.068 -0.114)">
      <path id="Path_1" data-name="Path 1" d="M14.5,0,28.52.083A14.734,14.734,0,0,1,43.2,14.625a14.316,14.316,0,0,1-14.5,14.369L14.677,28.91A14.734,14.734,0,0,1,0,14.369,14.316,14.316,0,0,1,14.5,0Z" transform="matrix(0.899, -0.438, 0.438, 0.899, 4.839, 18.936)" fill="#689c7e"/>
      <path id="Path_2" data-name="Path 2" d="M14.5,0,28.52.083A14.734,14.734,0,0,1,43.2,14.625a14.316,14.316,0,0,1-14.5,14.369L14.677,28.91A14.734,14.734,0,0,1,0,14.369,14.316,14.316,0,0,1,14.5,0Z" transform="matrix(0.899, -0.438, 0.438, 0.899, 0, 38.002)" fill="#025928"/>
    </g>
  </g>
</svg>
