<svg xmlns="http://www.w3.org/2000/svg" width="57.799" height="56.644" viewBox="0 0 57.799 56.644">
  <g id="piggy-bank" transform="translate(0 -5.115)">
    <g id="Group_2328" data-name="Group 2328" transform="translate(43.036 35.087)">
      <g id="Group_2327" data-name="Group 2327">
        <path id="Path_70" data-name="Path 70" d="M385.887,270.613a.841.841,0,0,0-.841.841,1.068,1.068,0,1,1-2.136,0,.841.841,0,1,0-1.682,0,2.75,2.75,0,0,0,5.5,0A.841.841,0,0,0,385.887,270.613Z" transform="translate(-381.228 -270.613)" fill="#025928"/>
      </g>
    </g>
    <g id="Group_2330" data-name="Group 2330" transform="translate(0 5.115)">
      <g id="Group_2329" data-name="Group 2329">
        <path id="Path_71" data-name="Path 71" d="M55.591,35.224l-2.367-.758a.99.99,0,0,1-.639-.648,15.264,15.264,0,0,0-2.238-4.427,16.244,16.244,0,0,0-1.5-1.764,20.864,20.864,0,0,0,.515-4.764c-.035-2.143-.464-3.4-1.309-3.843-.456-.239-1.842-.965-9.345,2.47a2.73,2.73,0,0,0-.5.3c-.506-.136-1.023-.262-1.543-.375l-.19-.039a11.459,11.459,0,0,0,1.03-4.26.841.841,0,0,0-1.681-.075,9.787,9.787,0,0,1-6.4,8.751,24.393,24.393,0,0,0-6.771,0A9.795,9.795,0,1,1,34.8,12.19a.841.841,0,0,0,1.5-.757,11.482,11.482,0,1,0-16.35,14.9h0q-.785.2-1.555.46a.841.841,0,0,0,.533,1.6,22.574,22.574,0,0,1,14.228,0,.841.841,0,0,0,.533-1.6q-.77-.257-1.555-.46h0a11.47,11.47,0,0,0,3.492-3.414c.232.045.462.092.689.141q.453.1.9.21c-.009.037-.019.073-.027.11a10.032,10.032,0,0,0,.079,5.117A6.09,6.09,0,0,0,39.5,31.629a7.076,7.076,0,0,0,4.14,1.314,5.55,5.55,0,0,0,2.683-.621A5.122,5.122,0,0,0,48.3,29.514q.364.424.689.869a13.582,13.582,0,0,1,1.992,3.94,2.675,2.675,0,0,0,1.731,1.745l2.367.758a1.49,1.49,0,0,1,1.039,1.423v3.926A1.49,1.49,0,0,1,55.078,43.6L51.264,44.82A2.6,2.6,0,0,0,49.81,46a16.766,16.766,0,0,1-7,6.37,1.318,1.318,0,0,0-.692.929l-1.222,6.469a.378.378,0,0,1-.371.308H36.55a.378.378,0,0,1-.371-.308L35.5,56.194A1.322,1.322,0,0,0,34,55.131a35.163,35.163,0,0,1-5.24.39A33.536,33.536,0,0,1,24.9,55.3a1.332,1.332,0,0,0-1.458,1.069l-.643,3.4a.378.378,0,0,1-.371.308H18.459a.379.379,0,0,1-.372-.31l-1.176-6.11a1.32,1.32,0,0,0-.679-.918A14.856,14.856,0,0,1,8.029,38.9a16.17,16.17,0,0,1,2.034-8.221,14.676,14.676,0,0,1,5.467-5.337.841.841,0,0,0-.842-1.456A16.011,16.011,0,0,0,6.563,35.84h0l-.243-.023a4.188,4.188,0,0,0-.308-1.678,3.445,3.445,0,0,0-2.554-2.231,2.325,2.325,0,0,0-2.189.975A2.215,2.215,0,0,0,.848,35.3c.424.873,1.513,1.49,3.32,1.879q-.075.112-.164.224A4.127,4.127,0,0,1,.861,39.067.883.883,0,0,0,0,39.945v0a.881.881,0,0,0,.844.878q.091,0,.189,0a5.464,5.464,0,0,0,4.286-2.38,4.8,4.8,0,0,0,.614-.992q.238.027.457.047h0c-.029.456-.045.918-.045,1.389a17.335,17.335,0,0,0,2.482,9.283,17.006,17.006,0,0,0,6.463,5.964l1.144,5.94a2.062,2.062,0,0,0,2.024,1.677h3.972a2.062,2.062,0,0,0,2.024-1.677l.581-3.071a35.448,35.448,0,0,0,3.721.193,36.954,36.954,0,0,0,5.154-.359l.613,3.238a2.062,2.062,0,0,0,2.024,1.677h3.972a2.062,2.062,0,0,0,2.024-1.677l1.19-6.3a18.34,18.34,0,0,0,7.53-6.94.919.919,0,0,1,.511-.421L55.591,45.2A3.167,3.167,0,0,0,57.8,42.175V38.249A3.167,3.167,0,0,0,55.591,35.224Zm-8.034-10c-.324,2.769-1.192,5.137-2.065,5.631a5.147,5.147,0,0,1-5-.587c-1.721-1.259-2.294-3.523-1.657-6.548h0a1.015,1.015,0,0,1,.577-.7c4.211-1.928,6.639-2.558,7.541-2.558a.88.88,0,0,1,.305.041C47.529,20.791,47.884,22.433,47.557,25.227Zm-45.2,9.339c-.087-.179.118-.5.249-.667a.671.671,0,0,1,.54-.329.631.631,0,0,1,.085.006,1.833,1.833,0,0,1,1.216,1.191,2.554,2.554,0,0,1,.176.793C3.463,35.319,2.558,34.971,2.362,34.566Z" transform="translate(0 -5.115)" fill="#025928"/>
      </g>
    </g>
    <g id="Group_2332" data-name="Group 2332" transform="translate(22.899 10.516)">
      <g id="Group_2331" data-name="Group 2331">
        <path id="Path_72" data-name="Path 72" d="M206.8,58.075v-3.01c1.038.074,1.424.549,1.779.549.445,0,.652-.563.652-.845,0-.727-1.424-1.038-2.432-1.068v-.4c0-.178-.223-.341-.445-.341a.391.391,0,0,0-.43.341v.43c-1.409.148-2.817.89-2.817,2.758,0,1.9,1.483,2.432,2.817,2.906v3.485c-1.513-.119-1.913-1.157-2.4-1.157-.371,0-.682.489-.682.845,0,.727,1.246,1.72,3.084,1.75h0v.46a.391.391,0,0,0,.43.341c.223,0,.445-.163.445-.341v-.5a2.873,2.873,0,0,0,2.7-3.055C209.5,59.2,208.094,58.549,206.8,58.075Zm-.786-.282c-.786-.3-1.424-.608-1.424-1.453,0-.771.593-1.142,1.424-1.246Zm.7,5.056V59.721a1.734,1.734,0,0,1,1.3,1.661A1.41,1.41,0,0,1,206.715,62.85Z" transform="translate(-202.845 -52.959)" fill="#025928"/>
      </g>
    </g>
  </g>
</svg>
