<svg xmlns="http://www.w3.org/2000/svg" width="23.643" height="21" viewBox="0 0 23.643 21">
  <path id="Icon_awesome-search" data-name="Icon awesome-search" d="M23.321,18.156l-4.6-4.089a1.183,1.183,0,0,0-.785-.287h-.753A7.906,7.906,0,0,0,19.211,8.53c0-4.712-4.3-8.53-9.606-8.53S0,3.818,0,8.53s4.3,8.53,9.606,8.53a10.35,10.35,0,0,0,5.911-1.8v.668a.931.931,0,0,0,.323.7l4.6,4.089a1.2,1.2,0,0,0,1.566,0l1.307-1.161A.912.912,0,0,0,23.321,18.156ZM9.606,13.78c-3.265,0-5.911-2.346-5.911-5.249S6.336,3.281,9.606,3.281s5.911,2.346,5.911,5.249S12.875,13.78,9.606,13.78Z" fill="#e2e2e2"/>
</svg>
